<?xml version="1.0" encoding="iso-8859-1"?>
<!-- Generator: Adobe Illustrator 18.0.0, SVG Export Plug-In . SVG Version: 6.00 Build 0)  -->
<!DOCTYPE svg PUBLIC "-//W3C//DTD SVG 1.1//EN" "http://www.w3.org/Graphics/SVG/1.1/DTD/svg11.dtd">
<svg version="1.1" id="_x32_" xmlns="http://www.w3.org/2000/svg" xmlns:xlink="http://www.w3.org/1999/xlink" x="0px" y="0px"
	 viewBox="0 0 512 512" style="enable-background:new 0 0 512 512;" xml:space="preserve">
<g>
	<rect style="fill:#8AC887;" width="512" height="512"/>
	<polygon style="opacity:0.1;fill:#070102;" points="512,199.17 512,512 217.55,512 81.255,375.705 81.97,375.245 134.247,340.89 
		134.45,340.785 110.9,317.235 69.683,276.02 69.735,276.02 151.45,242.125 151.5,242.125 204.8,220.06 235.52,207.31 
		249.445,201.525 250.78,201.01 255.795,198.91 286.72,229.835 293.425,236.545 332.8,210.74 334.645,209.51 447.745,135.375 
		448,135.17 	"/>
	<g>
		<path style="fill:#EA583A;" d="M153.66,411.32c-0.428,0.785-1.265,1.265-2.165,1.23c-0.893-0.04-1.693-0.57-2.06-1.385
			L130.88,369.87c-0.442-0.975-1.47-1.53-2.523-1.365l-44.712,7.11c-0.885,0.135-1.775-0.235-2.292-0.97
			c-0.523-0.73-0.577-1.695-0.15-2.485l108.802-201.34c0.62-1.14,2.055-1.57,3.195-0.955l68.31,36.92
			c1.14,0.615,1.57,2.045,0.955,3.195L153.66,411.32z"/>
		<path style="fill:#BF441F;" d="M261.51,206.785l-68.31-36.92c-1.14-0.615-2.575-0.185-3.195,0.955l-79.173,146.675l60.777,60.775
			l90.855-168.29C263.08,208.83,262.65,207.4,261.51,206.785z"/>
		<path style="fill:#BF441F;" d="M347.59,411.32c0.42,0.785,1.255,1.265,2.155,1.23c0.895-0.04,1.695-0.57,2.07-1.385l18.555-41.295
			c0.43-0.975,1.465-1.53,2.515-1.365l44.715,7.11c0.885,0.135,1.775-0.235,2.295-0.97c0.52-0.73,0.575-1.695,0.145-2.485
			L311.245,170.82c-0.62-1.14-2.055-1.57-3.2-0.955l-68.31,36.92c-1.145,0.615-1.57,2.045-0.955,3.195L347.59,411.32z"/>
		<path style="fill:#EA583A;" d="M61.44,256.795c0,21.32,17.147,26.405,33.093,21.885c12.807-3.635,140.987-40.705,140.987-40.705
			v-70.2c0,0-128.18-37.075-140.987-40.705c-15.945-4.52-33.093,0.56-33.093,21.88V256.795z"/>
		<path style="fill:#D0491B;" d="M204.8,242.21c0,1.22,2.04,2.405,2.38,3.51c15.66-4.57,28.34-7.745,28.34-7.745v-70.2
			c0,0-10.24-3.24-30.72-7.905V242.21z"/>
		<path style="fill:#EA583A;" d="M450.56,256.795c0,21.32-14.585,26.405-30.53,21.885c-12.805-3.635-138.43-40.705-138.43-40.705
			v-70.2c0,0,125.625-37.075,138.43-40.705c15.945-4.52,30.53,0.56,30.53,21.88V256.795z"/>
		<g>
			<path style="fill:#D0491B;" d="M281.6,167.775v70.2c0,0,75.01,22.36,115.16,34.05l-106.325-107.05
				C284.445,166.73,281.6,167.775,281.6,167.775z"/>
		</g>
		<path style="fill:#EA583A;" d="M286.72,239.035c0,5.75-0.675,11.845-6.415,11.845h-54.06c-5.75,0-11.205-6.095-11.205-11.845
			V166.27c0-5.755,5.455-7.55,11.205-7.55h54.06c5.74,0,6.415,1.795,6.415,7.55V239.035z"/>
	</g>
</g>
</svg>
